<svg xmlns="http://www.w3.org/2000/svg" width="51" height="50" viewBox="0 0 51 50" fill="none"><rect x="0.5" width="50" height="50" rx="25" fill="white"></rect><path d="M19.875 34.2344C18.4609 34.2344 17.2422 33.8945 16.2188 33.2148C15.2031 32.5352 14.4219 31.543 13.875 30.2383C13.3359 28.9258 13.0664 27.3516 13.0664 25.5156C13.0664 23.6797 13.3359 22.1094 13.875 20.8047C14.4219 19.5 15.207 18.5078 16.2305 17.8281C17.2539 17.1406 18.4688 16.7969 19.875 16.7969C21.2812 16.7969 22.4961 17.1406 23.5195 17.8281C24.543 18.5078 25.3281 19.5039 25.875 20.8164C26.4219 22.1211 26.6953 23.6875 26.6953 25.5156C26.6953 27.3594 26.4219 28.9336 25.875 30.2383C25.3359 31.543 24.5547 32.5352 23.5312 33.2148C22.5078 33.8945 21.2891 34.2344 19.875 34.2344ZM19.875 31.3281C20.5312 31.3281 21.1016 31.1133 21.5859 30.6836C22.0781 30.2539 22.4531 29.6055 22.7109 28.7383C22.9688 27.8633 23.0938 26.7891 23.0859 25.5156C23.0859 24.25 22.957 23.1836 22.6992 22.3164C22.4414 21.4414 22.0703 20.7852 21.5859 20.3477C21.1016 19.9102 20.5312 19.6914 19.875 19.6914C19.2188 19.6914 18.6484 19.9102 18.1641 20.3477C17.6875 20.7852 17.3164 21.4414 17.0508 22.3164C16.7852 23.1836 16.6523 24.25 16.6523 25.5156C16.6523 26.7891 16.7812 27.8633 17.0391 28.7383C17.3047 29.6055 17.6797 30.2539 18.1641 30.6836C18.6484 31.1133 19.2188 31.3281 19.875 31.3281ZM36.4336 34H32.8945V20.3828H32.8008L28.9219 22.8438V19.7031L33.1172 17.0312H36.4336V34Z" fill="#537061"></path></svg>