<svg xmlns="http://www.w3.org/2000/svg" width="50" height="50" viewBox="0 0 50 50" fill="none"><rect width="50" height="50" rx="25" fill="white"></rect><path d="M18.1758 34.2344C16.7617 34.2344 15.543 33.8945 14.5195 33.2148C13.5039 32.5273 12.7227 31.5312 12.1758 30.2266C11.6367 28.9219 11.3672 27.3516 11.3672 25.5156C11.3672 23.6875 11.6367 22.1211 12.1758 20.8164C12.7227 19.5039 13.5039 18.5078 14.5195 17.8281C15.543 17.1406 16.7617 16.7969 18.1758 16.7969C19.582 16.7969 20.7969 17.1406 21.8203 17.8281C22.8438 18.5078 23.6289 19.5039 24.1758 20.8164C24.7227 22.1211 24.9961 23.6875 24.9961 25.5156C24.9961 27.3594 24.7227 28.9336 24.1758 30.2383C23.6367 31.543 22.8555 32.5352 21.832 33.2148C20.8086 33.8945 19.5898 34.2344 18.1758 34.2344ZM18.1758 31.3281C18.8398 31.3281 19.4141 31.1133 19.8984 30.6836C20.3906 30.2539 20.7617 29.6055 21.0117 28.7383C21.2695 27.8711 21.3945 26.7969 21.3867 25.5156C21.3867 24.25 21.2578 23.1836 21 22.3164C20.7422 21.4414 20.3711 20.7852 19.8867 20.3477C19.4023 19.9102 18.832 19.6914 18.1758 19.6914C17.5117 19.6914 16.9414 19.9102 16.4648 20.3477C15.9883 20.7852 15.6172 21.4414 15.3516 22.3164C15.0859 23.1836 14.9531 24.25 14.9531 25.5156C14.9531 26.7969 15.0859 27.8711 15.3516 28.7383C15.6172 29.6055 15.9844 30.2539 16.4531 30.6836C16.9297 31.1133 17.5039 31.3281 18.1758 31.3281ZM27.4102 31.457L33.5156 25.8438C34.1094 25.2656 34.5742 24.7852 34.9102 24.4023C35.2461 24.0195 35.5039 23.6367 35.6836 23.2539C35.8633 22.8711 35.9531 22.4609 35.9531 22.0234C35.9531 21.5391 35.8359 21.1133 35.6016 20.7461C35.3672 20.3789 35.0469 20.0977 34.6406 19.9023C34.2344 19.6992 33.7734 19.5977 33.2578 19.5977C32.7266 19.5977 32.2617 19.7031 31.8633 19.9141C31.4727 20.125 31.168 20.4297 30.9492 20.8281C30.7305 21.2266 30.6211 21.6953 30.6211 22.2344H27.2695C27.2695 21.1406 27.5195 20.1836 28.0195 19.3633C28.5195 18.543 29.2266 17.9102 30.1406 17.4648C31.0547 17.0195 32.1055 16.7969 33.293 16.7969C34.4883 16.7969 35.543 17.0078 36.457 17.4297C37.3789 17.8516 38.0898 18.4414 38.5898 19.1992C39.0898 19.957 39.3398 20.8242 39.3398 21.8008C39.3398 22.4727 39.2109 23.1172 38.9531 23.7344C38.7031 24.3438 38.2578 25.0273 37.6172 25.7852C36.9766 26.5352 36.0742 27.4375 34.9102 28.4922L32.3203 30.9883V31.1055H39.5859V34H27.4219L27.4102 31.457Z" fill="#F6BD66"></path></svg>