<svg xmlns="http://www.w3.org/2000/svg" width="51" height="50" viewBox="0 0 51 50" fill="none"><rect x="0.5" width="50" height="50" rx="25" fill="white"></rect><path d="M17.8242 34.2344C16.4102 34.2344 15.1914 33.8945 14.168 33.2148C13.1523 32.5352 12.3711 31.543 11.8242 30.2383C11.2852 28.9258 11.0156 27.3516 11.0156 25.5156C11.0156 23.6797 11.2852 22.1094 11.8242 20.8047C12.3711 19.5 13.1562 18.5078 14.1797 17.8281C15.2031 17.1406 16.418 16.7969 17.8242 16.7969C19.2305 16.7969 20.4453 17.1406 21.4688 17.8281C22.4922 18.5078 23.2773 19.5039 23.8242 20.8164C24.3711 22.1211 24.6445 23.6875 24.6445 25.5156C24.6445 27.3594 24.3711 28.9336 23.8242 30.2383C23.2852 31.543 22.5039 32.5352 21.4805 33.2148C20.457 33.8945 19.2383 34.2344 17.8242 34.2344ZM17.8242 31.3281C18.4805 31.3281 19.0508 31.1133 19.5352 30.6836C20.0273 30.2539 20.4023 29.6055 20.6602 28.7383C20.918 27.8633 21.043 26.7891 21.0352 25.5156C21.0352 24.25 20.9062 23.1836 20.6484 22.3164C20.3906 21.4414 20.0195 20.7852 19.5352 20.3477C19.0508 19.9102 18.4805 19.6914 17.8242 19.6914C17.168 19.6914 16.5977 19.9102 16.1133 20.3477C15.6367 20.7852 15.2656 21.4414 15 22.3164C14.7344 23.1836 14.6016 24.25 14.6016 25.5156C14.6016 26.7891 14.7305 27.8633 14.9883 28.7383C15.2539 29.6055 15.6289 30.2539 16.1133 30.6836C16.5977 31.1133 17.168 31.3281 17.8242 31.3281ZM33.375 34.2344C32.1406 34.2344 31.0352 34.0234 30.0586 33.6016C29.082 33.1797 28.3164 32.5859 27.7617 31.8203C27.2148 31.0547 26.9297 30.1875 26.9062 29.2188H30.457C30.4805 29.6172 30.6211 29.9766 30.8789 30.2969C31.1367 30.6172 31.4844 30.8672 31.9219 31.0469C32.3594 31.2266 32.8438 31.3164 33.375 31.3164C33.9297 31.3164 34.4297 31.2188 34.875 31.0234C35.3281 30.8203 35.6758 30.5469 35.918 30.2031C36.1602 29.8516 36.2773 29.4531 36.2695 29.0078C36.2773 28.5469 36.1523 28.1367 35.8945 27.7773C35.6367 27.418 35.2617 27.1406 34.7695 26.9453C34.2852 26.7422 33.7148 26.6406 33.0586 26.6406H31.4766V24.0391H33.0586C33.6133 24.0391 34.1094 23.9453 34.5469 23.7578C34.9844 23.5625 35.3203 23.293 35.5547 22.9492C35.7891 22.6055 35.9023 22.2148 35.8945 21.7773C35.9023 21.3477 35.8047 20.9688 35.6016 20.6406C35.3984 20.3047 35.1055 20.0469 34.7227 19.8672C34.3398 19.6875 33.9023 19.5977 33.4102 19.5977C32.9102 19.5977 32.4531 19.6875 32.0391 19.8672C31.625 20.0391 31.2891 20.2891 31.0312 20.6172C30.7812 20.9375 30.6445 21.3125 30.6211 21.7422H27.2461C27.2773 20.7812 27.5625 19.9258 28.1016 19.1758C28.6406 18.4258 29.3711 17.8438 30.293 17.4297C31.2227 17.0078 32.2617 16.7969 33.4102 16.7969C34.5742 16.7969 35.6016 17.0039 36.4922 17.418C37.3828 17.832 38.0742 18.4023 38.5664 19.1289C39.0586 19.8555 39.2969 20.668 39.2812 21.5664C39.2969 22.1836 39.168 22.7461 38.8945 23.2539C38.6289 23.7617 38.25 24.1797 37.7578 24.5078C37.2734 24.8281 36.7109 25.0469 36.0703 25.1641V25.293C36.8984 25.3945 37.6016 25.625 38.1797 25.9844C38.7656 26.3359 39.207 26.7891 39.5039 27.3438C39.8008 27.8984 39.9414 28.5312 39.9258 29.2422C39.9414 30.1875 39.668 31.043 39.1055 31.8086C38.543 32.5664 37.7617 33.1602 36.7617 33.5898C35.7617 34.0195 34.6328 34.2344 33.375 34.2344Z" fill="#DE7327"></path></svg>