<svg width="242" height="90" viewBox="0 0 242 90" fill="none" xmlns="http://www.w3.org/2000/svg">
<g clip-path="url(#clip0_98_200)">
<path d="M16.7428 33.3286C7.52046 33.3286 0 25.8595 0 16.6643C0 7.46908 7.52046 0 16.7428 0C25.965 0 33.4855 7.46908 33.4855 16.6643C33.4855 25.8595 25.9812 33.3286 16.7428 33.3286ZM16.8724 8.58218C12.6097 8.58218 8.88192 12.2925 8.88192 16.5352C8.88192 20.7779 12.6097 24.4883 16.8724 24.4883C21.1351 24.4883 24.8629 20.7779 24.8629 16.5352C24.8629 12.2925 21.1351 8.58218 16.8724 8.58218Z" fill="#333132"/>
<path d="M16.678 69.5447V40.233H48.7696V69.5447H16.678ZM25.4951 60.769H39.9363V49.0088H25.4951V60.769Z" fill="#333132"/>
<path d="M87.2633 89.9838V60.6721H119.339V89.9838H87.2633ZM96.0804 81.2081H110.522V69.4479H96.0804V81.2081Z" fill="#333132"/>
<path d="M165.904 0.984009H157.168V32.7639H165.904V0.984009Z" fill="#333132"/>
<path d="M136.584 32.7639V9.66298L119.387 9.67912V0.984009H145.32V10.0018V10.4857V32.7639H136.584Z" fill="#333132"/>
<path d="M133.812 69.5447V40.233H165.888V69.5286H133.812V69.5447ZM142.629 60.769H157.071V49.0088H142.629V60.769Z" fill="#333132"/>
<path d="M109.29 1.0647H69.4346V9.7598H109.29V1.0647Z" fill="#F58220"/>
<path d="M75.6909 81.3049H16.678V90H75.6909V81.3049Z" fill="#FDB913"/>
<path d="M189.13 81.3049H133.812V90H189.13V81.3049Z" fill="#F04F23"/>
<path d="M232 1.0647H180.345V9.7598H232V1.0647Z" fill="#009273"/>
<path d="M110.619 53.2999V41.7656H105.481V53.2999H96.7611V21.52H105.497L105.481 33.0705H110.619V21.52H119.355L119.339 53.2999H110.619Z" fill="#333132"/>
<path d="M82.5468 53.2999L75.7395 39.6039L75.626 39.4103H75.2208L68.3325 53.2999H58.5105L75.4315 18.1646L92.3526 53.2999H82.5468Z" fill="#333132"/>
<path d="M223.961 53.2353V21.4716H242V30.1667H232.697V53.2353H223.961Z" fill="#333132"/>
<path d="M203.344 53.2192H202.858H180.361V21.4393H189.098V29.4408H203.685V21.4393H212.421V53.2192H203.36H203.344ZM189.081 44.5241H203.668V37.5713H189.081V44.5241Z" fill="#333132"/>
<path d="M200.686 89.9839V60.5109H209.422V66.7217H224.009V60.5109H232.745V89.9839H200.686ZM209.422 81.2888H224.009V74.2553H209.422V81.2888Z" fill="#333132"/>
<path d="M39.7417 32.8446V1.08083L57.7811 1.0647V9.7598H48.4778V15.0188H57.7811V23.6978H48.4778V32.8446H39.7417Z" fill="#333132"/>
</g>
<defs>
<clipPath id="clip0_98_200">
<rect width="242" height="90" fill="white"/>
</clipPath>
</defs>
</svg>
